<?xml version="1.0" standalone="no"?>
<!DOCTYPE svg PUBLIC "-//W3C//DTD SVG 20010904//EN"
 "http://www.w3.org/TR/2001/REC-SVG-20010904/DTD/svg10.dtd">
<svg version="1.0" xmlns="http://www.w3.org/2000/svg"
 width="500.000000pt" height="500.000000pt" viewBox="0 0 500.000000 500.000000"
 preserveAspectRatio="xMidYMid meet">
<metadata>
Created by potrace 1.14, written by Peter Selinger 2001-2017
</metadata>
<g transform="translate(0.000000,500.000000) scale(0.100000,-0.100000)"
fill="#000000" stroke="none">
<path d="M0 2500 l0 -2500 2500 0 2500 0 0 2500 0 2500 -2500 0 -2500 0 0
-2500z m2803 1580 c421 -82 795 -330 1030 -683 488 -734 310 -1699 -408 -2212
-169 -120 -412 -224 -628 -267 -160 -32 -454 -32 -606 1 -446 95 -799 336
-1045 714 -181 276 -267 601 -253 947 33 788 653 1438 1452 1524 96 10 353 -3
458 -24z"/>
<path d="M2259 3966 c-486 -86 -894 -395 -1103 -836 -110 -232 -148 -430 -135
-701 19 -385 158 -698 433 -975 217 -217 452 -345 757 -411 119 -26 458 -26
577 0 628 135 1099 639 1183 1264 18 135 6 383 -24 513 -70 296 -215 552 -426
753 -202 192 -443 319 -722 382 -100 23 -434 29 -540 11z m406 -76 c241 -28
480 -125 681 -276 39 -30 114 -98 166 -153 185 -192 301 -411 360 -681 29
-132 31 -414 4 -545 -61 -293 -197 -539 -413 -745 -196 -188 -436 -314 -701
-367 -121 -24 -403 -24 -524 0 -561 112 -996 547 -1114 1112 -26 127 -26 403
0 530 38 184 111 359 214 514 66 100 218 261 316 335 293 220 648 317 1011
276z"/>
<path d="M2540 3713 c0 -16 -3 -46 -7 -67 -4 -28 -3 -37 5 -32 7 4 12 19 12
34 0 53 15 54 45 2 16 -28 32 -50 36 -50 6 0 19 74 19 111 0 11 -4 19 -10 19
-5 0 -10 -18 -10 -40 0 -22 -3 -40 -7 -40 -5 0 -21 20 -36 45 -33 52 -47 57
-47 18z"/>
<path d="M2360 3678 c-7 -29 -15 -59 -17 -65 -3 -7 0 -13 6 -13 6 0 11 6 11
14 0 29 66 36 86 9 10 -14 13 -14 14 -4 0 21 -60 111 -74 111 -7 0 -18 -24
-26 -52z m49 3 c12 -22 5 -31 -22 -31 -13 0 -17 5 -13 16 3 9 6 20 6 25 0 16
19 10 29 -10z"/>
<path d="M2749 3708 c-11 -48 -7 -61 11 -29 7 13 7 22 0 26 -5 3 -10 5 -11 3z"/>
<path d="M2230 3645 c0 -30 -3 -55 -7 -55 -4 0 -24 17 -45 37 -21 20 -40 34
-43 32 -2 -3 18 -27 45 -54 27 -27 52 -47 54 -44 3 3 8 35 12 72 5 47 3 67 -5
67 -7 0 -11 -21 -11 -55z"/>
<path d="M2837 3643 c-13 -12 -7 -40 13 -58 11 -10 20 -24 20 -32 0 -18 -30
-16 -52 4 -10 9 -18 11 -18 5 0 -17 46 -44 67 -40 26 5 28 37 3 63 -14 15 -20
30 -16 41 6 15 8 15 32 -1 30 -20 46 -11 18 10 -20 15 -56 20 -67 8z"/>
<path d="M2013 3584 l-32 -26 36 -49 c19 -27 37 -49 40 -49 11 0 74 52 69 57
-3 3 -18 -4 -34 -16 -27 -19 -31 -19 -43 -5 -11 13 -8 19 17 39 33 27 21 34
-15 9 -17 -13 -25 -14 -34 -4 -9 9 -6 17 16 35 47 42 31 49 -20 9z"/>
<path d="M2302 3299 c-130 -64 -162 -232 -65 -339 42 -47 117 -84 273 -135
133 -43 146 -49 183 -83 23 -22 27 -33 27 -84 0 -99 -47 -180 -125 -218 -42
-20 -45 -24 -45 -61 0 -46 6 -48 87 -17 157 58 255 259 194 394 -34 74 -102
112 -259 144 -184 38 -258 76 -293 153 -23 53 -23 81 0 134 25 53 58 75 117
75 53 0 91 -23 112 -66 13 -25 12 -30 -8 -51 -28 -29 -21 -66 21 -124 41 -55
63 -53 85 6 25 64 23 111 -3 131 -12 10 -28 33 -37 52 -20 46 -35 63 -76 89
-47 28 -130 28 -188 0z"/>
<path d="M1770 2730 c0 -18 45 -39 116 -54 89 -18 125 -36 238 -120 98 -72
190 -113 281 -124 l60 -7 3 -133 3 -133 27 3 27 3 3 135 4 135 51 25 c68 34
107 94 114 177 3 37 1 68 -6 81 l-12 22 -454 0 c-290 0 -455 -4 -455 -10z"/>
<path d="M2868 2658 c-3 -46 -8 -92 -13 -102 -6 -14 11 -5 56 26 88 62 119 77
202 94 72 15 117 36 117 54 0 6 -69 10 -179 10 l-179 0 -4 -82z"/>
<path d="M2407 2409 c-72 -20 -127 -92 -127 -166 0 -58 29 -102 91 -137 49
-28 63 -31 139 -31 73 0 93 4 143 28 93 46 132 124 88 178 -15 19 -30 24 -83
27 -76 5 -108 -8 -108 -43 0 -22 4 -25 40 -25 38 0 40 -2 40 -30 0 -45 -38
-65 -121 -65 -90 0 -123 22 -127 88 -3 42 0 48 32 74 30 23 36 35 36 65 0 43
-5 48 -43 37z"/>
<path d="M1558 2313 c-16 -2 -28 -9 -28 -15 0 -6 19 -7 53 -3 l52 7 -44 -33
-44 -33 42 -20 c22 -11 41 -24 41 -28 0 -4 -20 -8 -45 -8 -25 0 -45 -4 -45
-10 0 -5 13 -10 29 -10 46 0 121 12 121 20 0 3 -22 17 -50 30 -27 13 -50 27
-50 31 0 4 15 17 34 28 19 12 39 28 46 36 11 13 6 15 -36 14 -27 -1 -61 -4
-76 -6z"/>
<path d="M2418 2239 c-21 -12 -23 -30 -6 -47 16 -16 38 3 38 34 0 26 -6 29
-32 13z"/>
<path d="M3324 2174 c-23 -56 -17 -67 51 -81 75 -15 75 -15 75 -3 0 6 -6 10
-14 10 -36 0 -24 53 14 65 31 10 24 25 -9 19 -20 -4 -30 -2 -34 10 -4 10 -18
16 -37 16 -26 0 -33 -6 -46 -36z m74 -18 c2 -16 0 -32 -5 -36 -13 -13 -63 1
-63 17 0 55 62 73 68 19z"/>
<path d="M2325 2069 c-10 -45 12 -106 48 -133 39 -29 118 -52 212 -61 38 -4
78 -11 88 -17 24 -13 34 -3 17 17 -22 27 -48 36 -138 51 -99 16 -138 43 -148
104 -5 27 -14 39 -40 51 -33 16 -33 16 -39 -12z"/>
<path d="M1637 2058 c-53 -18 -58 -22 -53 -44 12 -45 26 -74 36 -74 6 0 4 14
-5 36 -8 20 -12 40 -9 45 8 14 44 11 44 -4 0 -7 7 -22 16 -33 15 -18 15 -18
10 8 -3 14 -8 33 -12 41 -3 9 3 16 16 20 16 4 23 -1 31 -21 20 -56 22 -59 26
-40 5 19 -22 88 -34 87 -4 0 -34 -10 -66 -21z"/>
<path d="M2470 2006 c0 -37 4 -45 23 -50 36 -9 37 -8 37 44 0 49 -1 50 -30 50
-29 0 -30 -2 -30 -44z"/>
<path d="M3260 1985 c-11 -26 -19 -49 -18 -50 8 -7 86 -43 105 -49 19 -6 25
-1 43 33 22 45 24 51 12 51 -5 0 -16 -16 -25 -35 -15 -31 -20 -34 -37 -25 -19
10 -19 13 -5 45 8 22 10 35 4 35 -6 0 -16 -13 -22 -30 -12 -32 -15 -34 -36
-21 -11 7 -11 15 -1 45 18 56 4 56 -20 1z"/>
<path d="M1719 1872 l-57 -37 24 -34 c29 -42 41 -51 77 -51 34 0 67 32 67 66
0 26 -35 94 -48 94 -4 0 -32 -17 -63 -38z m91 -52 c0 -67 -77 -68 -114 -3 -4
7 11 24 36 42 l43 30 17 -22 c10 -12 18 -33 18 -47z"/>
<path d="M2470 1832 c0 -22 -6 -44 -13 -50 -19 -16 -184 -69 -237 -76 -25 -4
-52 -11 -60 -16 -10 -6 111 -10 340 -10 229 0 350 4 340 10 -8 5 -35 12 -60
16 -53 7 -218 60 -237 76 -7 6 -13 26 -13 44 0 23 -5 34 -14 34 -8 0 -21 3
-30 6 -13 5 -16 -1 -16 -34z"/>
<path d="M3171 1832 c-35 -45 -43 -76 -12 -48 21 19 26 18 83 -26 20 -16 39
-24 42 -19 3 5 -16 26 -44 46 -44 32 -49 39 -39 57 19 36 2 30 -30 -10z"/>
<path d="M1865 1690 c-27 -27 -46 -53 -42 -57 4 -4 31 16 58 44 28 28 47 53
42 56 -5 3 -31 -16 -58 -43z"/>
<path d="M3076 1721 c-4 -5 7 -25 24 -44 16 -19 30 -37 30 -40 0 -2 -28 1 -62
9 -35 7 -66 10 -70 6 -7 -7 71 -111 85 -111 15 -2 6 20 -25 55 l-33 37 35 -7
c78 -15 110 -18 110 -10 0 7 -59 84 -85 112 -2 2 -6 -1 -9 -7z"/>
<path d="M1962 1617 c-27 -28 -28 -67 -4 -95 19 -24 72 -40 72 -23 0 6 -8 11
-18 11 -24 0 -52 31 -52 58 0 50 63 69 100 30 11 -12 23 -18 27 -15 3 4 -4 18
-17 32 -31 33 -79 33 -108 2z"/>
<path d="M2868 1579 c-21 -11 -38 -22 -38 -25 0 -9 60 -124 66 -124 14 0 84
42 84 50 0 6 -18 1 -40 -10 -39 -20 -39 -20 -50 -1 -14 27 -14 27 20 41 17 7
30 16 30 21 0 12 -6 11 -40 -6 -27 -14 -30 -14 -40 5 -9 17 -6 22 25 37 19 9
35 20 35 25 0 12 -11 9 -52 -13z"/>
<path d="M2155 1490 c-33 -33 -54 -60 -48 -60 7 0 15 5 18 10 15 25 95 -1 95
-31 0 -10 5 -21 11 -25 12 -7 2 145 -10 158 -4 4 -33 -19 -66 -52z m61 -38
c-2 -1 -16 2 -31 8 l-28 11 24 25 24 26 7 -34 c3 -18 5 -34 4 -36z"/>
<path d="M2665 1495 c-28 -27 -30 -42 -14 -79 21 -46 99 -56 124 -16 12 19 -3
23 -20 6 -22 -22 -51 -20 -75 4 -39 39 -12 90 49 90 19 0 30 4 26 10 -12 19
-65 11 -90 -15z"/>
<path d="M2355 1463 c-3 -26 -9 -60 -11 -75 -5 -23 -2 -28 14 -28 11 0 34 -3
51 -6 19 -4 31 -2 31 4 0 6 -15 12 -32 14 l-33 3 0 62 c0 76 -11 91 -20 26z"/>
</g>
</svg>
